<?xml version="1.0" encoding="UTF-8"?>
<svg width="24px" height="24px" viewBox="0 0 16 16" version="1.1" xmlns="http://www.w3.org/2000/svg" xmlns:xlink="http://www.w3.org/1999/xlink">
    <!-- Generator: Sketch 3.8.3 (29802) - http://www.bohemiancoding.com/sketch -->
    <title>search</title>
    <desc>Created with Sketch.</desc>
    <defs></defs>
    <g id="Page-1" stroke="none" stroke-width="1" fill="none" fill-rule="evenodd">
        <g id="search" fill="#BDBDBD">
            <g id="magnifier--">
                <g id="Styleguides---Source-Sans-Pro">
                    <g id="S1---Styleguide">
                        <g id="04---Icons">
                            <g id="Content">
                                <g id="Minimal-Icons">
                                    <g id="Icons">
                                        <path d="M10.8362412,12.8648056 C9.7344915,13.5880065 8.4163711,14.008667 7,14.008667 C3.1340066,14.008667 0,10.8746604 0,7.008667 C0,3.1426736 3.1340066,0.008667 7,0.008667 C10.8659934,0.008667 14,3.1426736 14,7.008667 C14,8.4341835 13.5738896,9.7601765 12.8420918,10.8662229 L16.0206239,14.0447551 L14.0184073,16.0469717 L10.8362412,12.8648056 L10.8362412,12.8648056 Z M7,12.008667 C9.7614239,12.008667 12,9.7700909 12,7.008667 C12,4.2472431 9.7614239,2.008667 7,2.008667 C4.2385761,2.008667 2,4.2472431 2,7.008667 C2,9.7700909 4.2385761,12.008667 7,12.008667 L7,12.008667 Z" id="magnifier--"></path>
                                    </g>
                                </g>
                            </g>
                        </g>
                    </g>
                </g>
            </g>
        </g>
    </g>
</svg>